<svg xmlns="http://www.w3.org/2000/svg" viewBox="0 0 512 512">
  <rect width="512" height="512" rx="112" fill="#10A37F"/>
  <path fill="#ffffff" d="M379.1 226.6a85.3 85.3 0 0 0-7.4-70c-17.1-29.6-51.3-44.9-85.1-37.9A85.3 85.3 0 0 0 222 91c-34.1-.8-64.4 21.1-74.7 53.6a85.3 85.3 0 0 0-57 41.4 85.3 85.3 0 0 0 10.5 100c-9.4 26.5-6.4 55.9 8.2 80 17.1 29.6 51.3 44.9 85.1 37.9 15.1 17 36.9 26.7 59.7 26.7 34.1.8 64.4-21.1 74.7-53.6a85.3 85.3 0 0 0 57-41.4c17.1-29.6 13.3-66.9-6.4-92.1ZM254 424.2a63 63 0 0 1-40.6-14.7l2-1.2 67.4-39a11 11 0 0 0 5.5-9.6V264l28.5 16.5c.3.2.5.5.5.8v78.8c0 35.3-28.7 64-64.3 64.1Zm-137.8-58.9a63 63 0 0 1-7.5-42.3l2 1.2 67.4 39a11 11 0 0 0 11.1 0l82.3-47.5v32.9c0 .3-.1.6-.4.8l-68.2 39.4c-30.7 17.7-69.9 7.2-87.7-23.5Zm-17.8-147.1a63 63 0 0 1 33.1-27.9v80.2a11 11 0 0 0 5.5 9.6l82.1 47.4-28.5 16.5c-.3.1-.6.1-.8 0l-68.2-39.4c-30.7-17.8-41.2-57-23.2-87.4Zm234.1 54.5-82.3-47.7 28.5-16.4c.3-.2.6-.2.8 0l68.2 39.4a64 64 0 0 1-9.8 115.4v-80.2a10.8 10.8 0 0 0-5.4-10.5ZM361 170.8l-2-1.2-67.3-39.1a11 11 0 0 0-11.1 0l-82.3 47.5V145c0-.3.1-.6.4-.8l68.2-39.3a64.1 64.1 0 0 1 94.1 65.9Zm-178.8 52.3-28.5-16.5c-.3-.2-.5-.5-.5-.8v-78.8a64 64 0 0 1 105-49.1l-2 1.2-67.4 39a11 11 0 0 0-5.5 9.6l-1.1 95.4Zm15.5-33.4 36.6-21.2 36.6 21.1v42.2l-36.5 21.1-36.6-21.1-.1-42.1Z"/>
</svg>
